<?xml version="1.0" encoding="utf-8"?>
<!-- Generator: Adobe Illustrator 27.0.0, SVG Export Plug-In . SVG Version: 6.00 Build 0)  -->
<svg version="1.1" id="Layer_1" xmlns="http://www.w3.org/2000/svg" xmlns:xlink="http://www.w3.org/1999/xlink" x="0px" y="0px"
	 viewBox="0 0 335 494" style="enable-background:new 0 0 335 494;" xml:space="preserve">
<style type="text/css">
	.st0{fill:#0160C9;stroke:#FFFFFF;stroke-width:4.7826;stroke-miterlimit:10;}
</style>
<g>
	<g>
		<image style="overflow:visible;" width="375" height="512" xlink:href="CD91D7B9.png"  transform="matrix(1 0 0 1 -20 -9.2473)">
		</image>
	</g>
	<path class="st0" d="M307.8,229.8c-8.3,23.9-21.5,45.2-34.5,66.7C239.5,352.3,205.8,408.2,172,464c0,0,0,0,0,0.1
		c-1.9,3.1-6.5,3.1-8.4,0c-6.3-10.3-12.2-20.1-18.2-29.9c-33.4-55.3-67-110.6-100.2-166c-15.3-25.6-25.6-53.2-28.4-82.9
		c-2.2-23.8,2.5-46.9,12.8-68.3c28-57.7,74.4-88.4,138.5-89.3c74.8-1,138.1,54.8,149.5,129C321.4,182.2,316,206.1,307.8,229.8z"/>
</g>
</svg>
